<?xml version="1.0" encoding="UTF-8" ?>
<!DOCTYPE svg PUBLIC "-//W3C//DTD SVG 1.1//EN" "http://www.w3.org/Graphics/SVG/1.1/DTD/svg11.dtd">
<svg width="1970pt" height="518pt" viewBox="0 0 1970 518" version="1.1" xmlns="http://www.w3.org/2000/svg">
<g id="#c63130ff">
<path fill="#c63130" opacity="1.00" d=" M 1302.08 1.13 C 1323.21 -1.12 1345.15 0.79 1364.88 9.05 C 1380.59 15.72 1394.90 25.92 1405.86 39.04 C 1416.77 51.94 1424.60 67.27 1429.51 83.39 C 1435.92 104.24 1437.49 126.39 1435.53 148.05 C 1433.70 166.75 1428.66 185.24 1419.91 201.90 C 1410.81 219.22 1397.33 234.36 1380.62 244.64 C 1366.04 253.83 1349.24 259.28 1332.11 260.88 C 1310.86 262.85 1288.85 260.73 1269.16 252.10 C 1253.25 245.18 1238.96 234.51 1228.08 220.97 C 1215.60 205.60 1207.51 187.01 1203.11 167.79 C 1197.72 143.44 1197.75 117.85 1203.24 93.52 C 1209.58 65.37 1224.75 38.46 1248.52 21.50 C 1264.18 10.15 1282.86 3.14 1302.08 1.13 M 1303.53 12.78 C 1290.07 14.78 1277.14 20.81 1267.42 30.42 C 1254.51 43.15 1247.38 60.49 1243.43 77.91 C 1238.14 100.57 1238.93 123.96 1239.06 147.05 C 1239.47 160.16 1240.86 173.29 1243.94 186.06 C 1248.00 202.97 1255.24 219.78 1268.04 231.94 C 1278.19 241.91 1291.91 247.74 1305.94 249.40 C 1323.71 251.46 1342.77 249.07 1357.90 238.93 C 1372.25 229.56 1381.62 214.26 1387.10 198.31 C 1394.45 176.74 1396.14 153.66 1395.50 131.02 C 1396.16 107.59 1394.39 83.64 1386.35 61.44 C 1380.80 46.06 1371.30 31.59 1357.40 22.59 C 1341.61 12.37 1321.84 10.09 1303.53 12.78 Z" />
<path fill="#c63130" opacity="1.00" d=" M 0.51 30.02 C 0.09 18.06 10.19 6.99 22.18 6.53 C 46.80 6.44 71.42 6.54 96.03 6.49 C 117.66 6.02 137.64 19.30 148.71 37.34 C 154.40 46.47 156.68 57.30 157.38 67.93 C 158.94 85.50 154.77 103.54 145.67 118.65 C 138.64 130.23 127.76 139.49 114.99 144.12 C 105.45 147.73 95.15 148.85 85.00 148.50 C 79.84 148.23 74.07 149.57 69.52 146.45 C 66.33 144.38 65.29 140.51 64.56 137.02 C 72.39 136.95 80.23 137.05 88.06 136.99 C 99.11 136.78 109.53 130.74 116.10 122.00 C 126.10 108.97 129.80 92.15 129.77 75.98 C 129.99 60.07 124.77 43.88 114.27 31.79 C 107.23 23.66 96.94 17.85 85.99 17.99 C 72.61 18.06 59.24 17.90 45.87 18.06 C 40.13 18.16 35.40 23.30 35.54 29.00 C 35.43 98.30 35.55 167.60 35.48 236.91 C 35.46 245.76 28.66 254.01 19.91 255.54 C 13.48 256.46 6.96 255.81 0.50 256.00 C 0.51 180.67 0.48 105.34 0.51 30.02 Z" />
<path fill="#c63130" opacity="1.00" d=" M 258.50 8.34 C 262.55 5.37 268.48 5.55 272.39 8.68 C 275.46 10.90 277.12 14.43 278.42 17.87 C 309.68 97.29 341.20 176.61 372.41 256.05 C 367.47 255.88 360.34 256.67 358.12 250.98 C 348.87 227.81 339.73 204.59 330.58 181.38 C 329.59 178.93 328.05 175.89 325.03 175.79 C 314.02 175.65 303.01 175.82 292.00 175.74 C 288.88 175.68 285.40 175.15 283.26 172.63 C 281.17 170.34 280.69 167.18 280.12 164.25 C 292.08 164.25 304.04 164.24 315.99 164.27 C 318.20 164.37 320.33 163.75 322.45 163.20 C 322.17 161.34 321.90 159.46 321.24 157.70 C 310.98 131.85 300.85 105.95 290.55 80.11 C 287.40 71.78 276.18 67.93 268.54 72.47 C 265.05 74.30 263.04 77.87 261.69 81.44 C 240.01 135.45 218.36 189.49 196.69 243.51 C 194.10 250.38 187.39 255.43 180.04 255.84 C 172.23 256.21 164.41 255.90 156.60 255.99 C 188.00 177.91 219.40 99.83 250.72 21.71 C 252.73 16.99 254.01 11.41 258.50 8.34 Z" />
<path fill="#c63130" opacity="1.00" d=" M 1013.95 12.93 C 1014.74 9.15 1018.34 6.54 1022.14 6.53 C 1030.09 6.44 1038.06 6.52 1046.03 6.50 C 1049.86 6.46 1053.74 7.77 1056.46 10.55 C 1060.86 14.56 1062.51 20.50 1064.02 26.04 C 1078.97 78.02 1093.95 129.99 1108.93 181.95 C 1109.27 183.26 1109.77 184.56 1110.89 185.44 C 1112.24 184.41 1112.72 182.78 1113.18 181.23 C 1128.85 125.88 1144.58 70.54 1160.17 15.17 C 1161.71 8.74 1168.99 6.83 1174.72 6.32 C 1152.13 86.56 1129.29 166.73 1106.58 246.93 C 1105.73 249.50 1105.42 252.48 1103.43 254.48 C 1101.28 256.55 1098.06 255.86 1095.38 255.99 C 1073.16 178.66 1050.77 101.38 1028.52 24.06 C 1027.99 22.77 1027.64 20.87 1026.03 20.57 C 1023.81 19.80 1023.00 22.53 1022.47 24.10 C 1000.91 100.01 979.53 175.98 957.82 251.85 C 956.69 256.15 951.73 256.21 948.14 256.07 C 924.19 172.96 900.15 89.86 876.15 6.76 C 884.41 6.83 892.68 6.59 900.94 6.85 C 908.29 7.41 913.30 14.14 915.19 20.75 C 930.03 72.34 944.84 123.95 959.59 175.57 C 960.70 178.76 960.92 182.43 962.98 185.20 C 964.68 185.90 965.19 183.66 965.61 182.51 C 981.72 125.98 997.82 69.45 1013.95 12.93 Z" />
<path fill="#c63130" opacity="1.00" d=" M 1497.10 8.94 C 1506.58 4.41 1519.40 5.14 1526.98 12.97 C 1530.90 17.82 1534.13 23.19 1537.76 28.26 C 1572.53 78.80 1607.31 129.34 1642.09 179.89 C 1644.69 183.58 1646.92 187.86 1650.99 190.19 C 1654.41 192.30 1659.24 193.32 1662.66 190.66 C 1665.77 188.12 1666.22 183.77 1666.27 180.03 C 1666.23 132.68 1666.26 85.33 1666.25 37.99 C 1666.65 29.53 1664.92 20.54 1668.59 12.58 C 1670.17 8.84 1673.85 6.78 1677.65 5.88 C 1677.89 82.28 1677.67 158.68 1677.76 235.08 C 1677.99 242.21 1674.87 249.97 1668.10 253.11 C 1658.01 257.71 1643.95 256.56 1637.06 247.06 C 1597.88 190.20 1558.78 133.28 1519.60 76.42 C 1516.32 71.71 1509.84 67.95 1504.14 70.39 C 1500.33 72.37 1499.29 76.99 1499.26 80.93 C 1499.25 132.29 1499.23 183.64 1499.27 235.00 C 1499.37 241.07 1498.96 247.91 1494.57 252.58 C 1492.83 254.58 1490.21 255.25 1487.77 255.91 C 1487.72 179.60 1487.77 103.29 1487.74 26.98 C 1487.57 19.96 1490.36 12.11 1497.10 8.94 Z" />
<path fill="#c63130" opacity="1.00" d=" M 410.00 6.50 C 416.91 6.81 423.94 5.78 430.76 7.17 C 439.04 9.30 445.02 17.46 444.93 25.96 C 445.19 56.65 444.87 87.35 444.78 118.03 C 444.22 120.33 446.72 123.07 448.53 120.59 C 488.88 83.96 528.87 46.90 569.12 10.16 C 574.89 4.97 583.10 6.79 590.15 6.52 C 557.70 36.30 525.21 66.02 492.78 95.81 C 489.02 98.71 488.75 104.55 491.94 107.97 C 532.78 157.34 573.77 206.60 614.58 256.00 C 606.35 255.87 598.09 256.40 589.91 255.40 C 584.57 254.76 579.23 252.57 575.68 248.42 C 541.23 206.84 506.72 165.30 472.27 123.71 C 470.70 121.67 467.91 119.71 465.39 121.43 C 461.17 124.07 457.99 128.01 454.20 131.19 C 451.07 134.27 446.91 136.78 445.42 141.13 C 444.34 147.34 444.87 153.69 444.75 159.97 C 444.55 185.70 445.36 211.42 444.88 237.15 C 444.77 243.74 440.94 249.97 435.29 253.28 C 427.61 257.66 418.40 255.47 410.00 256.00 C 410.00 172.83 410.00 89.66 410.00 6.50 Z" />
<path fill="#c63130" opacity="1.00" d=" M 646.75 6.50 C 652.78 6.62 658.82 6.26 664.84 6.66 C 674.29 7.56 682.02 16.46 681.76 25.93 C 681.74 69.26 681.75 112.60 681.75 155.93 C 681.83 166.30 681.28 176.75 682.98 187.03 C 685.77 205.38 693.97 223.46 708.19 235.74 C 718.34 244.66 731.55 249.96 745.05 250.59 C 763.17 251.27 782.24 247.08 796.48 235.32 C 810.91 223.56 819.09 205.84 822.92 187.95 C 827.29 168.94 826.10 149.35 826.25 130.01 C 826.27 92.36 826.21 54.70 826.28 17.04 C 826.26 10.88 832.20 7.15 837.64 6.17 C 837.89 37.12 837.68 68.08 837.75 99.03 C 837.63 117.67 838.01 136.32 837.49 154.96 C 837.71 174.28 835.31 193.96 827.77 211.88 C 821.52 226.66 810.98 239.79 797.14 248.10 C 779.24 259.08 757.70 262.25 737.01 261.74 C 715.51 261.03 693.68 253.97 677.48 239.46 C 663.53 227.15 654.79 209.87 650.64 191.92 C 645.74 172.00 646.86 151.36 646.75 131.03 C 646.75 89.52 646.75 48.01 646.75 6.50 Z" />
</g>
<g id="#65656aff">
<path fill="#65656a" opacity="1.00" d=" M 1242.06 289.68 C 1245.55 289.28 1249.98 290.07 1250.88 294.10 C 1270.62 363.13 1290.07 432.26 1309.70 501.33 C 1310.06 502.65 1310.65 503.97 1311.97 504.63 C 1313.94 504.59 1314.74 502.59 1315.19 500.99 C 1335.52 430.55 1355.83 360.10 1376.17 289.66 C 1379.67 289.38 1384.18 289.95 1385.02 294.10 C 1406.27 368.49 1427.31 442.95 1448.36 517.40 C 1443.29 516.85 1436.86 515.40 1435.21 509.81 C 1420.89 459.12 1406.53 408.44 1392.17 357.77 C 1391.76 356.29 1390.78 355.06 1390.05 353.76 C 1388.02 357.59 1387.18 361.86 1385.94 365.97 C 1373.26 409.93 1360.61 453.89 1347.95 497.86 C 1346.28 503.86 1344.76 510.56 1339.49 514.51 C 1334.85 518.30 1328.51 517.04 1323.00 517.25 C 1317.58 517.11 1311.71 517.96 1306.78 515.24 C 1303.23 513.37 1301.31 509.60 1300.28 505.90 C 1286.69 458.04 1273.01 410.22 1259.41 362.37 C 1258.59 359.35 1257.84 356.25 1255.99 353.67 C 1253.68 357.01 1253.08 361.08 1251.93 364.88 C 1239.30 408.92 1226.70 452.97 1214.04 497.00 C 1212.47 502.11 1211.58 507.74 1207.95 511.90 C 1205.53 514.84 1201.99 517.00 1198.10 516.96 C 1190.85 517.09 1183.60 516.95 1176.36 517.00 C 1198.27 441.23 1220.16 365.45 1242.06 289.68 Z" />
<path fill="#65656a" opacity="1.00" d=" M 1578.19 298.03 C 1579.80 293.50 1583.97 289.64 1588.99 289.72 C 1594.30 289.63 1598.65 293.82 1600.37 298.58 C 1629.13 371.49 1658.01 444.35 1686.71 517.28 C 1682.10 517.24 1675.43 517.83 1673.54 512.42 C 1665.07 491.19 1656.73 469.89 1648.28 448.65 C 1647.41 446.43 1645.74 444.03 1643.09 444.07 C 1632.04 443.72 1620.95 444.37 1609.92 443.78 C 1605.00 443.05 1603.04 437.86 1602.49 433.54 C 1614.68 433.33 1626.89 433.74 1639.08 433.35 C 1641.64 433.19 1641.11 430.09 1640.33 428.46 C 1630.90 404.59 1621.55 380.70 1612.03 356.87 C 1608.97 349.14 1598.35 345.86 1591.45 350.47 C 1586.86 353.40 1585.71 359.06 1583.66 363.71 C 1564.68 411.06 1545.65 458.38 1526.70 505.74 C 1524.30 512.24 1517.88 516.97 1510.93 517.17 C 1503.98 517.39 1497.03 517.19 1490.09 517.23 C 1519.53 444.20 1548.81 371.09 1578.19 298.03 Z" />
<path fill="#65656a" opacity="1.00" d=" M 1733.52 455.08 C 1733.47 399.97 1733.51 344.86 1733.51 289.75 C 1739.90 290.01 1746.41 289.14 1752.75 290.33 C 1759.53 291.83 1765.19 297.96 1765.22 305.07 C 1765.30 356.72 1765.20 408.38 1765.27 460.03 C 1765.74 470.91 1765.34 482.46 1770.46 492.41 C 1774.12 499.76 1782.01 503.78 1789.79 505.24 C 1802.57 507.66 1815.63 506.42 1828.56 506.79 C 1827.68 510.32 1826.07 514.03 1822.58 515.66 C 1817.08 518.20 1810.83 516.96 1805.00 517.26 C 1786.73 517.21 1766.84 514.92 1752.42 502.59 C 1738.78 490.96 1734.05 472.33 1733.52 455.08 Z" />
<path fill="#65656a" opacity="1.00" d=" M 1874.50 442.05 C 1874.51 391.29 1874.49 340.52 1874.51 289.75 C 1881.20 290.06 1888.05 288.99 1894.65 290.52 C 1901.49 292.28 1906.71 298.89 1906.48 306.03 C 1906.55 358.36 1906.45 410.69 1906.53 463.02 C 1906.97 473.36 1906.93 484.42 1912.33 493.63 C 1916.42 500.66 1924.40 504.12 1932.11 505.45 C 1944.55 507.56 1957.21 506.45 1969.77 506.79 C 1968.88 512.17 1964.64 516.79 1959.01 517.02 C 1946.33 517.54 1933.48 517.49 1920.98 515.08 C 1908.71 512.73 1896.65 507.15 1888.50 497.46 C 1880.39 487.90 1876.58 475.45 1875.27 463.17 C 1874.58 456.16 1874.45 449.10 1874.50 442.05 Z" />
</g>
</svg>
